<svg width="270" height="188" viewBox="0 0 270 188" fill="none" xmlns="http://www.w3.org/2000/svg">
<path d="M34.1284 11.0468C34.1284 6.61205 38.1998 3.29501 42.5431 4.19127L241.807 45.3105C245.059 45.9816 247.393 48.8454 247.393 52.1661V176.953C247.393 181.388 243.321 184.705 238.978 183.809L39.7137 142.689C36.4615 142.018 34.1284 139.155 34.1284 135.834V11.0468Z" fill="#171823" stroke="#2CFFC0" stroke-width="4"/>
<path d="M33.902 28.3774C33.902 28.3774 52.404 31.3835 60.3334 33.2623C68.2628 35.1411 87.3312 39.932 87.3312 39.932L140.76 51.4866C140.76 51.4866 170.59 59.0018 194.19 63.0412C217.789 67.0806 247.619 72.717 247.619 72.717" stroke="#2CFFC0" stroke-width="4"/>
<ellipse rx="3.58752" ry="3.64508" transform="matrix(0.999539 0.030373 -0.0459392 0.998944 45.2268 16.9019)" fill="#2CFFC0"/>
<ellipse rx="3.58752" ry="3.64508" transform="matrix(0.999539 0.030373 -0.0459392 0.998944 58.3729 19.6218)" fill="#E93C8F"/>
<ellipse rx="3.58752" ry="3.64508" transform="matrix(0.999539 0.030373 -0.0459392 0.998944 71.6617 22.9442)" fill="#FCFFE0"/>
<path d="M46.04 64.7029L46.0401 61.3523L58.1635 57.7989C58.6403 57.6497 59.0768 57.5309 59.4731 57.4424C59.8962 57.3337 59.4363 57.4129 59.6312 57.3922C59.6312 57.3922 59.9021 57.0346 59.5218 56.8374C59.1448 56.6167 58.7712 56.3724 58.4008 56.1046L46.7605 49.4717L46.7605 46.0066L62.2806 55.1857L62.2806 59.5759L46.04 64.7029Z" fill="#3F6EFC"/>
<path d="M62.2806 68.2828L62.2806 65.1787L79.1762 67.6538L79.2235 70.6552L62.2806 68.2828Z" fill="#3F6EFC"/>
<circle cx="76.6051" cy="168.628" r="4.20727" transform="rotate(21.5352 76.6051 168.628)" fill="#3F6EFC"/>
<circle cx="265.285" cy="142.164" r="2.26435" transform="rotate(21.5352 265.285 142.164)" fill="#2CFFC0"/>
<ellipse cx="245.236" cy="142.275" rx="3.04863" ry="2.69287" transform="rotate(21.5352 245.236 142.275)" fill="#3F6EFC"/>
<circle cx="169.718" cy="13.4391" r="4.20727" transform="rotate(21.5352 169.718 13.4391)" fill="#2CFFC0"/>
<path d="M228.109 144.104C227.59 145.421 226.472 146.687 224.846 146.046C223.22 145.404 222.323 143.816 222.843 142.499C223.363 141.181 225.103 140.633 226.729 141.275C228.355 141.917 228.629 142.786 228.109 144.104Z" fill="#FCFFE0"/>
<circle cx="3.90724" cy="97.7033" r="2.85473" transform="rotate(21.5352 3.90724 97.7033)" fill="#FCFFE0"/>
<circle cx="156.874" cy="10.3492" r="1.82546" transform="rotate(21.5352 156.874 10.3492)" fill="#FCFFE0"/>
<circle cx="17.559" cy="103.561" r="1.90127" transform="rotate(21.5352 17.559 103.561)" fill="#2CFFC0"/>
<circle cx="88.6892" cy="162.976" r="1.90127" transform="rotate(21.5352 88.6892 162.976)" fill="#2CFFC0"/>
<circle cx="25.4887" cy="90.9813" r="1.94111" transform="rotate(21.5352 25.4887 90.9813)" fill="#3F6EFC"/>
<ellipse cx="155.363" cy="177.145" rx="2.80444" ry="2.47745" transform="rotate(21.5352 155.363 177.145)" fill="#E93C8F"/>
<ellipse cx="63.137" cy="159.409" rx="2.80444" ry="2.47745" transform="rotate(21.5352 63.137 159.409)" fill="#FCFFE0"/>
<ellipse cx="256.559" cy="131.265" rx="1.50844" ry="1.33256" transform="rotate(21.5352 256.559 131.265)" fill="#E93C8F"/>
<ellipse cx="255.34" cy="146.757" rx="2.28161" ry="2.01557" transform="rotate(21.5352 255.34 146.757)" fill="#FCFFE0"/>
<ellipse cx="268.147" cy="130.331" rx="1.26263" ry="1.11541" transform="rotate(21.5352 268.147 130.331)" fill="#3F6EFC"/>
<ellipse cx="256.172" cy="124.489" rx="0.655865" ry="0.579392" transform="rotate(21.5352 256.172 124.489)" fill="#FCFFE0"/>
<ellipse cx="189.948" cy="21.0698" rx="2.80444" ry="2.47745" transform="rotate(21.5352 189.948 21.0698)" fill="#3F6EFC"/>
<ellipse cx="142.948" cy="15.749" rx="2.80444" ry="2.47745" transform="rotate(21.5352 142.948 15.749)" fill="#3F6EFC"/>
<ellipse cx="176.647" cy="24.617" rx="2.80444" ry="2.47745" transform="rotate(21.5352 176.647 24.617)" fill="#3F6EFC"/>
</svg>
