<svg width="218" height="192" viewBox="0 0 218 192" fill="none" xmlns="http://www.w3.org/2000/svg">
<circle cx="132.669" cy="143.566" r="10.9097" transform="rotate(21.5352 132.669 143.566)" fill="#3F6EFC"/>
<circle cx="125.857" cy="14.1528" r="10.9097" transform="rotate(21.5352 125.857 14.1528)" fill="#2CFFC0"/>
<circle cx="58.3595" cy="62.0068" r="4.74436" transform="rotate(21.5352 58.3595 62.0068)" fill="#FCFFE0"/>
<circle cx="98.8176" cy="158.074" r="2.36987" transform="rotate(21.5352 98.8176 158.074)" fill="#FCFFE0"/>
<circle cx="158.074" cy="72.0744" r="2.36987" transform="rotate(21.5352 158.074 72.0744)" fill="#FCFFE0"/>
<circle cx="103.074" cy="88.0744" r="2.36987" transform="rotate(21.5352 103.074 88.0744)" fill="#FCFFE0"/>
<circle cx="93.0744" cy="106.074" r="2.36987" transform="rotate(21.5352 93.0744 106.074)" fill="#E93C8F"/>
<circle cx="62.0744" cy="150.074" r="2.36987" transform="rotate(21.5352 62.0744 150.074)" fill="#E93C8F"/>
<circle cx="128.074" cy="95.0744" r="2.36987" transform="rotate(21.5352 128.074 95.0744)" fill="#E93C8F"/>
<circle cx="76.1547" cy="123.155" r="4.74436" transform="rotate(21.5352 76.1547 123.155)" fill="#2CFFC0"/>
<circle cx="103.155" cy="185.155" r="4.74436" transform="rotate(21.5352 103.155 185.155)" fill="#2CFFC0"/>
<circle cx="181.155" cy="141.155" r="4.74436" transform="rotate(21.5352 181.155 141.155)" fill="#2CFFC0"/>
<circle cx="163.709" cy="108.709" r="2.08832" transform="rotate(21.5352 163.709 108.709)" fill="#2CFFC0"/>
<circle cx="112.709" cy="112.709" r="2.08832" transform="rotate(21.5352 112.709 112.709)" fill="#2CFFC0"/>
<circle cx="140.709" cy="175.709" r="2.08832" transform="rotate(21.5352 140.709 175.709)" fill="#2CFFC0"/>
<circle cx="8.12291" cy="122.552" r="6.26154" transform="rotate(21.5352 8.12291 122.552)" fill="#E93C8F"/>
<circle cx="193.363" cy="185.371" r="4.91144" transform="rotate(21.5352 193.363 185.371)" fill="#E93C8F"/>
<circle cx="16.8189" cy="23.726" r="5.02575" transform="rotate(21.5352 16.8189 23.726)" fill="#3F6EFC"/>
<circle cx="39.0274" cy="95.5093" r="2.33" transform="rotate(21.5352 39.0274 95.5093)" fill="#3F6EFC"/>
<circle cx="71.0226" cy="86.0226" r="2.33" transform="rotate(21.5352 71.0226 86.0226)" fill="#3F6EFC"/>
<circle cx="96.0226" cy="50.0226" r="2.33" transform="rotate(21.5352 96.0226 50.0226)" fill="#3F6EFC"/>
<circle cx="152.023" cy="41.0226" r="2.33" transform="rotate(21.5352 152.023 41.0226)" fill="#3F6EFC"/>
<circle cx="128.52" cy="70.5197" r="5.02575" transform="rotate(21.5352 128.52 70.5197)" fill="#3F6EFC"/>
<path d="M46.7014 185.508C45.1785 189.367 41.3208 190.194 37.4618 188.672C33.6029 187.149 31.204 183.852 32.7268 179.993C34.2496 176.134 38.6124 174.24 42.4714 175.763C46.3304 177.286 48.2242 181.649 46.7014 185.508Z" fill="#FCFFE0"/>
<path d="M214.766 79.5039C213.243 83.3629 209.386 84.1907 205.527 82.6678C201.668 81.145 199.269 77.8482 200.792 73.9892C202.315 70.1303 206.677 68.2365 210.536 69.7593C214.395 71.2821 216.289 75.6449 214.766 79.5039Z" fill="#FCFFE0"/>
</svg>
