<svg width="42" height="39" viewBox="0 0 42 39" fill="none" xmlns="http://www.w3.org/2000/svg">
<path fill-rule="evenodd" clip-rule="evenodd" d="M20.9392 0.000119411C16.1403 0.000758147 11.4983 1.68996 7.84338 4.76557C4.18846 7.84117 1.75912 12.1025 0.98992 16.7874C0.220717 21.4722 1.16183 26.2749 3.64492 30.3363C6.128 34.3977 9.99107 37.453 14.5431 38.9554C15.5538 39.1411 15.9869 38.527 15.9869 37.9987V34.6001C10.3705 35.7996 9.18656 31.9155 9.18656 31.9155C8.7916 30.6915 7.96036 29.6511 6.84759 28.9881C5.01395 27.7601 6.99197 27.7743 6.99197 27.7743C7.63245 27.8638 8.24378 28.0969 8.77927 28.4558C9.31477 28.8146 9.76025 29.2898 10.0817 29.8449C10.641 30.837 11.5757 31.5688 12.6803 31.8794C13.785 32.19 14.9691 32.0541 15.9725 31.5014C16.054 30.4882 16.5056 29.539 17.243 28.831C12.7672 28.317 8.04595 26.6034 8.04595 18.9494C8.01321 16.9615 8.75807 15.0379 10.125 13.5802C9.5063 11.8583 9.57865 9.96739 10.3272 8.29669C10.3272 8.29669 12.0164 7.75405 15.8858 10.3387C19.1943 9.44614 22.684 9.44614 25.9925 10.3387C29.8475 7.75405 31.5367 8.29669 31.5367 8.29669C32.2852 9.96739 32.3576 11.8583 31.7388 13.5802C33.1058 15.0379 33.8507 16.9615 33.8179 18.9494C33.8179 26.632 29.0967 28.317 24.592 28.8168C25.0745 29.3005 25.4466 29.8809 25.6833 30.5189C25.9199 31.1569 26.0155 31.8376 25.9636 32.5152V37.9987C25.9636 38.6556 26.3246 39.1553 27.4074 38.9554C31.9654 37.4511 35.8325 34.39 38.3152 30.3211C40.7979 26.2522 41.7338 21.4416 40.9551 16.752C40.1764 12.0624 37.7341 7.80057 34.0661 4.73069C30.398 1.6608 25.7442 -0.0162988 20.9392 0.000119411Z" fill="#646464"/>
</svg>
