<svg width="306" height="78" viewBox="0 0 306 78" fill="none" xmlns="http://www.w3.org/2000/svg">
<path d="M11.232 50V10.112H0.504028V1.976H31.392V10.112H20.592V50H11.232Z" fill="#3F6EFC"/>
<path d="M59.458 0.895996C63.058 0.895996 66.394 1.544 69.466 2.84C72.586 4.136 75.298 5.912 77.602 8.168C79.906 10.424 81.706 13.088 83.002 16.16C84.346 19.184 85.018 22.472 85.018 26.024C85.018 29.576 84.346 32.888 83.002 35.96C81.706 38.984 79.882 41.624 77.53 43.88C75.226 46.136 72.49 47.912 69.322 49.208C66.154 50.456 62.746 51.08 59.098 51.08C55.498 51.08 52.138 50.432 49.018 49.136C45.946 47.84 43.258 46.064 40.954 43.808C38.698 41.504 36.922 38.816 35.626 35.744C34.33 32.624 33.682 29.264 33.682 25.664C33.682 22.256 34.354 19.04 35.698 16.016C37.042 12.992 38.866 10.376 41.17 8.168C43.522 5.912 46.258 4.136 49.378 2.84C52.546 1.544 55.906 0.895996 59.458 0.895996ZM59.314 9.464C57.154 9.464 55.09 9.896 53.122 10.76C51.202 11.624 49.498 12.8 48.01 14.288C46.57 15.776 45.418 17.504 44.554 19.472C43.738 21.44 43.33 23.552 43.33 25.808C43.33 28.112 43.738 30.296 44.554 32.36C45.418 34.376 46.57 36.152 48.01 37.688C49.45 39.176 51.154 40.352 53.122 41.216C55.09 42.08 57.178 42.512 59.386 42.512C61.594 42.512 63.658 42.08 65.578 41.216C67.546 40.352 69.25 39.176 70.69 37.688C72.13 36.152 73.258 34.4 74.074 32.432C74.938 30.416 75.37 28.256 75.37 25.952C75.37 23.648 74.938 21.512 74.074 19.544C73.258 17.528 72.13 15.776 70.69 14.288C69.25 12.8 67.546 11.624 65.578 10.76C63.658 9.896 61.57 9.464 59.314 9.464Z" fill="#3F6EFC"/>
<path d="M84.9291 1.976H96.0171L106.313 18.68L116.537 1.976H127.697L110.849 27.968V50H101.489V27.968L84.9291 1.976Z" fill="#3F6EFC"/>
<path d="M164.348 14.864C162.38 12.944 160.484 11.576 158.66 10.76C156.884 9.896 154.868 9.464 152.612 9.464C150.404 9.464 148.34 9.896 146.42 10.76C144.5 11.624 142.844 12.8 141.452 14.288C140.06 15.776 138.956 17.552 138.14 19.616C137.324 21.632 136.916 23.816 136.916 26.168C136.916 28.52 137.324 30.704 138.14 32.72C138.956 34.688 140.06 36.416 141.452 37.904C142.892 39.344 144.572 40.472 146.492 41.288C148.46 42.104 150.572 42.512 152.828 42.512C155.132 42.512 157.148 42.128 158.876 41.36C160.604 40.544 162.428 39.176 164.348 37.256V48.272C162.188 49.28 160.196 50 158.372 50.432C156.548 50.864 154.628 51.08 152.612 51.08C149.06 51.08 145.748 50.432 142.676 49.136C139.604 47.84 136.916 46.088 134.612 43.88C132.356 41.624 130.556 38.984 129.212 35.96C127.916 32.936 127.268 29.696 127.268 26.24C127.268 22.736 127.916 19.448 129.212 16.376C130.556 13.304 132.38 10.616 134.684 8.312C136.988 6.008 139.676 4.208 142.748 2.912C145.82 1.568 149.108 0.895996 152.612 0.895996C154.772 0.895996 156.74 1.136 158.516 1.616C160.292 2.048 162.236 2.792 164.348 3.848V14.864Z" fill="#3F6EFC"/>
<path d="M196.145 0.895996C199.745 0.895996 203.081 1.544 206.153 2.84C209.273 4.136 211.985 5.912 214.289 8.168C216.593 10.424 218.393 13.088 219.689 16.16C221.033 19.184 221.705 22.472 221.705 26.024C221.705 29.576 221.033 32.888 219.689 35.96C218.393 38.984 216.569 41.624 214.217 43.88C211.913 46.136 209.177 47.912 206.009 49.208C202.841 50.456 199.433 51.08 195.785 51.08C192.185 51.08 188.825 50.432 185.705 49.136C182.633 47.84 179.945 46.064 177.641 43.808C175.385 41.504 173.609 38.816 172.313 35.744C171.017 32.624 170.369 29.264 170.369 25.664C170.369 22.256 171.041 19.04 172.385 16.016C173.729 12.992 175.553 10.376 177.857 8.168C180.209 5.912 182.945 4.136 186.065 2.84C189.233 1.544 192.593 0.895996 196.145 0.895996ZM196.001 9.464C193.841 9.464 191.777 9.896 189.809 10.76C187.889 11.624 186.185 12.8 184.697 14.288C183.257 15.776 182.105 17.504 181.241 19.472C180.425 21.44 180.017 23.552 180.017 25.808C180.017 28.112 180.425 30.296 181.241 32.36C182.105 34.376 183.257 36.152 184.697 37.688C186.137 39.176 187.841 40.352 189.809 41.216C191.777 42.08 193.865 42.512 196.073 42.512C198.281 42.512 200.345 42.08 202.265 41.216C204.233 40.352 205.937 39.176 207.377 37.688C208.817 36.152 209.945 34.4 210.761 32.432C211.625 30.416 212.057 28.256 212.057 25.952C212.057 23.648 211.625 21.512 210.761 19.544C209.945 17.528 208.817 15.776 207.377 14.288C205.937 12.8 204.233 11.624 202.265 10.76C200.345 9.896 198.257 9.464 196.001 9.464Z" fill="#3F6EFC"/>
<path d="M230.333 1.976H244.085C251.093 1.976 256.829 3.82399 261.293 7.52C264.029 9.728 266.141 12.464 267.629 15.728C269.117 18.944 269.861 22.352 269.861 25.952C269.861 29.552 269.093 32.96 267.557 36.176C266.021 39.392 263.885 42.152 261.149 44.456C258.845 46.424 256.325 47.84 253.589 48.704C250.853 49.568 247.661 50 244.013 50H230.333V1.976ZM242.213 41.864C245.237 41.864 247.757 41.576 249.773 41C251.789 40.376 253.541 39.392 255.029 38.048C256.661 36.608 257.933 34.808 258.845 32.648C259.757 30.488 260.213 28.256 260.213 25.952C260.213 23.648 259.757 21.44 258.845 19.328C257.933 17.216 256.661 15.44 255.029 14C253.493 12.608 251.717 11.624 249.701 11.048C247.733 10.424 245.237 10.112 242.213 10.112H239.693V41.864H242.213Z" fill="#3F6EFC"/>
<path d="M288.068 10.112V20.768H304.628V28.904H288.068V41.864H305.276V50H278.708V1.976H305.276V10.112H288.068Z" fill="#3F6EFC"/>
<path d="M1.65601 77V63.86H5.05801C5.91001 63.86 6.64201 64.022 7.25401 64.346C7.87801 64.67 8.35801 65.126 8.69401 65.714C9.04201 66.302 9.21601 66.998 9.21601 67.802V73.04C9.21601 73.844 9.04201 74.546 8.69401 75.146C8.35801 75.734 7.87801 76.19 7.25401 76.514C6.64201 76.838 5.91001 77 5.05801 77H1.65601ZM3.27601 75.56H5.05801C5.85001 75.56 6.46801 75.338 6.91201 74.894C7.36801 74.45 7.59601 73.832 7.59601 73.04V67.802C7.59601 67.022 7.36801 66.41 6.91201 65.966C6.46801 65.522 5.85001 65.3 5.05801 65.3H3.27601V75.56Z" fill="url(#paint0_linear_21_2)"/>
<path d="M15.329 77.18C14.285 77.18 13.463 76.916 12.863 76.388C12.263 75.848 11.963 75.122 11.963 74.21C11.963 73.286 12.263 72.56 12.863 72.032C13.463 71.504 14.273 71.24 15.293 71.24H18.353V70.25C18.353 69.638 18.167 69.17 17.795 68.846C17.435 68.51 16.919 68.342 16.247 68.342C15.659 68.342 15.167 68.468 14.771 68.72C14.375 68.96 14.147 69.29 14.087 69.71H12.467C12.575 68.858 12.977 68.18 13.673 67.676C14.369 67.172 15.239 66.92 16.283 66.92C17.423 66.92 18.323 67.214 18.983 67.802C19.643 68.39 19.973 69.188 19.973 70.196V77H18.389V75.11H18.119L18.389 74.84C18.389 75.56 18.107 76.13 17.543 76.55C16.991 76.97 16.253 77.18 15.329 77.18ZM15.725 75.902C16.493 75.902 17.123 75.71 17.615 75.326C18.107 74.942 18.353 74.45 18.353 73.85V72.446H15.329C14.789 72.446 14.363 72.596 14.051 72.896C13.739 73.196 13.583 73.604 13.583 74.12C13.583 74.672 13.769 75.11 14.141 75.434C14.525 75.746 15.053 75.902 15.725 75.902Z" fill="url(#paint1_linear_21_2)"/>
<path d="M23.5839 77V67.1H25.1679V68.99H25.5459L25.0239 70.16C25.0239 69.092 25.2519 68.288 25.7079 67.748C26.1759 67.196 26.8659 66.92 27.7779 66.92C28.8219 66.92 29.6499 67.25 30.2619 67.91C30.8859 68.558 31.1979 69.44 31.1979 70.556V71.15H29.5779V70.7C29.5779 69.92 29.3859 69.326 29.0019 68.918C28.6299 68.498 28.0959 68.288 27.3999 68.288C26.7159 68.288 26.1759 68.498 25.7799 68.918C25.3959 69.338 25.2039 69.932 25.2039 70.7V77H23.5839Z" fill="url(#paint2_linear_21_2)"/>
<path d="M34.0889 77V63.86H35.7089V71.186H37.6169L40.4969 67.1H42.3509L39.0209 71.816L42.4049 77H40.5149L37.6349 72.59H35.7089V77H34.0889Z" fill="url(#paint3_linear_21_2)"/>
<path d="M58.5548 77V65.318H54.9548V63.842H63.7748V65.318H60.1749V77H58.5548Z" fill="url(#paint4_linear_21_2)"/>
<path d="M66.4138 77V63.86H68.0338V67.1V68.99H68.3758L68.0338 69.368C68.0338 68.588 68.2678 67.988 68.7358 67.568C69.2038 67.136 69.8518 66.92 70.6798 66.92C71.6758 66.92 72.4678 67.226 73.0558 67.838C73.6438 68.45 73.9378 69.284 73.9378 70.34V77H72.3178V70.52C72.3178 69.812 72.1258 69.266 71.7418 68.882C71.3698 68.486 70.8598 68.288 70.2118 68.288C69.5398 68.288 69.0058 68.498 68.6098 68.918C68.2258 69.338 68.0338 69.932 68.0338 70.7V77H66.4138Z" fill="url(#paint5_linear_21_2)"/>
<path d="M80.9508 77.18C80.1708 77.18 79.4868 77.024 78.8988 76.712C78.3228 76.4 77.8728 75.962 77.5488 75.398C77.2368 74.822 77.0808 74.156 77.0808 73.4V70.7C77.0808 69.932 77.2368 69.266 77.5488 68.702C77.8728 68.138 78.3228 67.7 78.8988 67.388C79.4868 67.076 80.1708 66.92 80.9508 66.92C81.7308 66.92 82.4088 67.076 82.9848 67.388C83.5728 67.7 84.0228 68.138 84.3348 68.702C84.6588 69.266 84.8208 69.932 84.8208 70.7V72.446H78.6648V73.4C78.6648 74.18 78.8628 74.78 79.2588 75.2C79.6548 75.608 80.2188 75.812 80.9508 75.812C81.5748 75.812 82.0788 75.704 82.4628 75.488C82.8468 75.26 83.0808 74.924 83.1648 74.48H84.7848C84.6768 75.308 84.2688 75.968 83.5608 76.46C82.8648 76.94 81.9948 77.18 80.9508 77.18ZM83.2368 71.366V70.7C83.2368 69.92 83.0388 69.32 82.6428 68.9C82.2588 68.48 81.6948 68.27 80.9508 68.27C80.2188 68.27 79.6548 68.48 79.2588 68.9C78.8628 69.32 78.6648 69.92 78.6648 70.7V71.222H83.3628L83.2368 71.366Z" fill="url(#paint6_linear_21_2)"/>
<path d="M87.5318 77V67.1H88.9538V68.288H89.2778L89.0258 68.72C89.0258 68.168 89.1698 67.73 89.4578 67.406C89.7578 67.082 90.1598 66.92 90.6638 66.92C91.2158 66.92 91.6418 67.124 91.9418 67.532C92.2418 67.94 92.3918 68.516 92.3918 69.26L91.9058 68.288H92.6618L92.3198 68.72C92.3198 68.168 92.4698 67.73 92.7698 67.406C93.0818 67.082 93.4898 66.92 93.9938 66.92C94.6178 66.92 95.0978 67.154 95.4338 67.622C95.7818 68.09 95.9558 68.708 95.9558 69.476V77H94.4618V69.458C94.4618 69.05 94.3718 68.732 94.1918 68.504C94.0238 68.276 93.7718 68.162 93.4358 68.162C93.1118 68.162 92.8538 68.276 92.6618 68.504C92.4818 68.72 92.3918 69.032 92.3918 69.44V77H91.0958V69.458C91.0958 69.038 90.9998 68.72 90.8078 68.504C90.6278 68.276 90.3698 68.162 90.0338 68.162C89.6978 68.162 89.4458 68.276 89.2778 68.504C89.1098 68.72 89.0258 69.032 89.0258 69.44V77H87.5318Z" fill="url(#paint7_linear_21_2)"/>
<path d="M102.537 77.18C101.757 77.18 101.073 77.024 100.485 76.712C99.9087 76.4 99.4587 75.962 99.1347 75.398C98.8227 74.822 98.6667 74.156 98.6667 73.4V70.7C98.6667 69.932 98.8227 69.266 99.1347 68.702C99.4587 68.138 99.9087 67.7 100.485 67.388C101.073 67.076 101.757 66.92 102.537 66.92C103.317 66.92 103.995 67.076 104.571 67.388C105.159 67.7 105.609 68.138 105.921 68.702C106.245 69.266 106.407 69.932 106.407 70.7V72.446H100.251V73.4C100.251 74.18 100.449 74.78 100.845 75.2C101.241 75.608 101.805 75.812 102.537 75.812C103.161 75.812 103.665 75.704 104.049 75.488C104.433 75.26 104.667 74.924 104.751 74.48H106.371C106.263 75.308 105.855 75.968 105.147 76.46C104.451 76.94 103.581 77.18 102.537 77.18ZM104.823 71.366V70.7C104.823 69.92 104.625 69.32 104.229 68.9C103.845 68.48 103.281 68.27 102.537 68.27C101.805 68.27 101.241 68.48 100.845 68.9C100.449 69.32 100.251 69.92 100.251 70.7V71.222H104.949L104.823 71.366Z" fill="url(#paint8_linear_21_2)"/>
<path d="M122.683 77V69.566H119.803V68.09H122.683V66.38C122.683 65.6 122.929 64.988 123.421 64.544C123.913 64.088 124.591 63.86 125.455 63.86H128.353V65.336H125.455C125.083 65.336 124.795 65.426 124.591 65.606C124.399 65.774 124.303 66.032 124.303 66.38V68.09H128.353V69.566H124.303V77H122.683Z" fill="url(#paint9_linear_21_2)"/>
<path d="M134.916 77.144C134.124 77.144 133.44 76.994 132.864 76.694C132.288 76.394 131.838 75.962 131.514 75.398C131.202 74.822 131.046 74.144 131.046 73.364V70.736C131.046 69.944 131.202 69.266 131.514 68.702C131.838 68.138 132.288 67.706 132.864 67.406C133.44 67.106 134.124 66.956 134.916 66.956C135.708 66.956 136.392 67.106 136.968 67.406C137.544 67.706 137.988 68.138 138.3 68.702C138.624 69.266 138.786 69.938 138.786 70.718V73.364C138.786 74.144 138.624 74.822 138.3 75.398C137.988 75.962 137.544 76.394 136.968 76.694C136.392 76.994 135.708 77.144 134.916 77.144ZM134.916 75.704C135.624 75.704 136.176 75.506 136.572 75.11C136.968 74.714 137.166 74.132 137.166 73.364V70.736C137.166 69.968 136.968 69.386 136.572 68.99C136.176 68.594 135.624 68.396 134.916 68.396C134.22 68.396 133.668 68.594 133.26 68.99C132.864 69.386 132.666 69.968 132.666 70.736V73.364C132.666 74.132 132.864 74.714 133.26 75.11C133.668 75.506 134.22 75.704 134.916 75.704Z" fill="url(#paint10_linear_21_2)"/>
<path d="M142.307 77V67.1H143.891V68.99H144.269L143.747 70.16C143.747 69.092 143.975 68.288 144.431 67.748C144.899 67.196 145.589 66.92 146.501 66.92C147.545 66.92 148.373 67.25 148.985 67.91C149.609 68.558 149.921 69.44 149.921 70.556V71.15H148.301V70.7C148.301 69.92 148.109 69.326 147.725 68.918C147.353 68.498 146.819 68.288 146.123 68.288C145.439 68.288 144.899 68.498 144.503 68.918C144.119 69.338 143.927 69.932 143.927 70.7V77H142.307Z" fill="url(#paint11_linear_21_2)"/>
<path d="M166.179 77L162.795 63.86H164.469L166.701 72.788C166.857 73.412 166.989 73.994 167.097 74.534C167.205 75.062 167.283 75.464 167.331 75.74C167.379 75.464 167.451 75.062 167.547 74.534C167.655 73.994 167.787 73.412 167.943 72.788L170.157 63.86H171.795L168.393 77H166.179Z" fill="url(#paint12_linear_21_2)"/>
<path d="M177.781 77.144C177.109 77.144 176.522 77.042 176.018 76.838C175.526 76.622 175.129 76.322 174.829 75.938C174.541 75.554 174.367 75.098 174.307 74.57H175.928C176 74.918 176.191 75.194 176.503 75.398C176.827 75.602 177.253 75.704 177.781 75.704H178.538C179.174 75.704 179.648 75.578 179.96 75.326C180.272 75.062 180.428 74.714 180.428 74.282C180.428 73.862 180.283 73.532 179.995 73.292C179.719 73.04 179.305 72.872 178.753 72.788L177.421 72.572C176.449 72.404 175.723 72.104 175.243 71.672C174.775 71.228 174.542 70.586 174.542 69.746C174.542 68.858 174.823 68.174 175.387 67.694C175.951 67.202 176.798 66.956 177.926 66.956H178.609C179.557 66.956 180.32 67.178 180.896 67.622C181.472 68.066 181.819 68.666 181.939 69.422H180.32C180.248 69.11 180.067 68.864 179.779 68.684C179.491 68.492 179.101 68.396 178.609 68.396H177.926C177.314 68.396 176.864 68.51 176.576 68.738C176.3 68.966 176.161 69.308 176.161 69.764C176.161 70.172 176.281 70.472 176.521 70.664C176.761 70.856 177.14 70.994 177.656 71.078L178.988 71.294C180.056 71.462 180.829 71.774 181.309 72.23C181.801 72.686 182.048 73.346 182.048 74.21C182.048 75.122 181.753 75.842 181.165 76.37C180.589 76.886 179.714 77.144 178.538 77.144H177.781Z" fill="url(#paint13_linear_21_2)"/>
<path d="M188.952 77.18C188.16 77.18 187.47 77.03 186.882 76.73C186.306 76.43 185.856 75.998 185.532 75.434C185.22 74.858 185.064 74.18 185.064 73.4V67.46C185.064 66.668 185.22 65.99 185.532 65.426C185.856 64.862 186.306 64.43 186.882 64.13C187.47 63.83 188.16 63.68 188.952 63.68C189.744 63.68 190.428 63.836 191.004 64.148C191.58 64.448 192.024 64.88 192.336 65.444C192.648 66.008 192.804 66.68 192.804 67.46H191.184C191.184 66.716 190.986 66.146 190.59 65.75C190.206 65.342 189.66 65.138 188.952 65.138C188.244 65.138 187.686 65.336 187.278 65.732C186.882 66.128 186.684 66.698 186.684 67.442V73.4C186.684 74.144 186.882 74.72 187.278 75.128C187.686 75.524 188.244 75.722 188.952 75.722C189.66 75.722 190.206 75.524 190.59 75.128C190.986 74.72 191.184 74.144 191.184 73.4H192.804C192.804 74.168 192.648 74.84 192.336 75.416C192.024 75.98 191.58 76.418 191.004 76.73C190.428 77.03 189.744 77.18 188.952 77.18Z" fill="url(#paint14_linear_21_2)"/>
<path d="M199.673 77.144C198.881 77.144 198.197 76.994 197.621 76.694C197.045 76.394 196.595 75.962 196.271 75.398C195.959 74.822 195.803 74.144 195.803 73.364V70.736C195.803 69.944 195.959 69.266 196.271 68.702C196.595 68.138 197.045 67.706 197.621 67.406C198.197 67.106 198.881 66.956 199.673 66.956C200.465 66.956 201.149 67.106 201.725 67.406C202.301 67.706 202.745 68.138 203.057 68.702C203.381 69.266 203.543 69.938 203.543 70.718V73.364C203.543 74.144 203.381 74.822 203.057 75.398C202.745 75.962 202.301 76.394 201.725 76.694C201.149 76.994 200.465 77.144 199.673 77.144ZM199.673 75.704C200.381 75.704 200.933 75.506 201.329 75.11C201.725 74.714 201.923 74.132 201.923 73.364V70.736C201.923 69.968 201.725 69.386 201.329 68.99C200.933 68.594 200.381 68.396 199.673 68.396C198.977 68.396 198.425 68.594 198.017 68.99C197.621 69.386 197.423 69.968 197.423 70.736V73.364C197.423 74.132 197.621 74.714 198.017 75.11C198.425 75.506 198.977 75.704 199.673 75.704Z" fill="url(#paint15_linear_21_2)"/>
<path d="M209.89 77.18C208.906 77.18 208.108 76.85 207.496 76.19C206.896 75.53 206.596 74.636 206.596 73.508V70.61C206.596 69.47 206.896 68.57 207.496 67.91C208.096 67.25 208.894 66.92 209.89 66.92C210.706 66.92 211.36 67.142 211.852 67.586C212.344 68.03 212.59 68.624 212.59 69.368L212.266 68.99H212.626L212.59 66.74V63.86H214.21V77H212.59V75.11H212.266L212.59 74.732C212.59 75.488 212.344 76.088 211.852 76.532C211.36 76.964 210.706 77.18 209.89 77.18ZM210.43 75.776C211.102 75.776 211.63 75.566 212.014 75.146C212.398 74.726 212.59 74.144 212.59 73.4V70.7C212.59 69.956 212.398 69.374 212.014 68.954C211.63 68.534 211.102 68.324 210.43 68.324C209.746 68.324 209.206 68.528 208.81 68.936C208.414 69.344 208.216 69.932 208.216 70.7V73.4C208.216 74.168 208.414 74.756 208.81 75.164C209.206 75.572 209.746 75.776 210.43 75.776Z" fill="url(#paint16_linear_21_2)"/>
<path d="M221.259 77.18C220.479 77.18 219.795 77.024 219.207 76.712C218.631 76.4 218.181 75.962 217.857 75.398C217.545 74.822 217.389 74.156 217.389 73.4V70.7C217.389 69.932 217.545 69.266 217.857 68.702C218.181 68.138 218.631 67.7 219.207 67.388C219.795 67.076 220.479 66.92 221.259 66.92C222.039 66.92 222.717 67.076 223.293 67.388C223.881 67.7 224.331 68.138 224.643 68.702C224.967 69.266 225.129 69.932 225.129 70.7V72.446H218.973V73.4C218.973 74.18 219.171 74.78 219.567 75.2C219.963 75.608 220.527 75.812 221.259 75.812C221.883 75.812 222.387 75.704 222.771 75.488C223.155 75.26 223.389 74.924 223.473 74.48H225.093C224.985 75.308 224.577 75.968 223.869 76.46C223.173 76.94 222.303 77.18 221.259 77.18ZM223.545 71.366V70.7C223.545 69.92 223.347 69.32 222.951 68.9C222.567 68.48 222.003 68.27 221.259 68.27C220.527 68.27 219.963 68.48 219.567 68.9C219.171 69.32 218.973 69.92 218.973 70.7V71.222H223.671L223.545 71.366Z" fill="url(#paint17_linear_21_2)"/>
<defs>
<linearGradient id="paint0_linear_21_2" x1="125.5" y1="59" x2="125.5" y2="83" gradientUnits="userSpaceOnUse">
<stop stop-color="#9CA4E7"/>
<stop offset="1" stop-color="#3D405F" stop-opacity="0.31"/>
</linearGradient>
<linearGradient id="paint1_linear_21_2" x1="125.5" y1="59" x2="125.5" y2="83" gradientUnits="userSpaceOnUse">
<stop stop-color="#9CA4E7"/>
<stop offset="1" stop-color="#3D405F" stop-opacity="0.31"/>
</linearGradient>
<linearGradient id="paint2_linear_21_2" x1="125.5" y1="59" x2="125.5" y2="83" gradientUnits="userSpaceOnUse">
<stop stop-color="#9CA4E7"/>
<stop offset="1" stop-color="#3D405F" stop-opacity="0.31"/>
</linearGradient>
<linearGradient id="paint3_linear_21_2" x1="125.5" y1="59" x2="125.5" y2="83" gradientUnits="userSpaceOnUse">
<stop stop-color="#9CA4E7"/>
<stop offset="1" stop-color="#3D405F" stop-opacity="0.31"/>
</linearGradient>
<linearGradient id="paint4_linear_21_2" x1="125.5" y1="59" x2="125.5" y2="83" gradientUnits="userSpaceOnUse">
<stop stop-color="#9CA4E7"/>
<stop offset="1" stop-color="#3D405F" stop-opacity="0.31"/>
</linearGradient>
<linearGradient id="paint5_linear_21_2" x1="125.5" y1="59" x2="125.5" y2="83" gradientUnits="userSpaceOnUse">
<stop stop-color="#9CA4E7"/>
<stop offset="1" stop-color="#3D405F" stop-opacity="0.31"/>
</linearGradient>
<linearGradient id="paint6_linear_21_2" x1="125.5" y1="59" x2="125.5" y2="83" gradientUnits="userSpaceOnUse">
<stop stop-color="#9CA4E7"/>
<stop offset="1" stop-color="#3D405F" stop-opacity="0.31"/>
</linearGradient>
<linearGradient id="paint7_linear_21_2" x1="125.5" y1="59" x2="125.5" y2="83" gradientUnits="userSpaceOnUse">
<stop stop-color="#9CA4E7"/>
<stop offset="1" stop-color="#3D405F" stop-opacity="0.31"/>
</linearGradient>
<linearGradient id="paint8_linear_21_2" x1="125.5" y1="59" x2="125.5" y2="83" gradientUnits="userSpaceOnUse">
<stop stop-color="#9CA4E7"/>
<stop offset="1" stop-color="#3D405F" stop-opacity="0.31"/>
</linearGradient>
<linearGradient id="paint9_linear_21_2" x1="125.5" y1="59" x2="125.5" y2="83" gradientUnits="userSpaceOnUse">
<stop stop-color="#9CA4E7"/>
<stop offset="1" stop-color="#3D405F" stop-opacity="0.31"/>
</linearGradient>
<linearGradient id="paint10_linear_21_2" x1="125.5" y1="59" x2="125.5" y2="83" gradientUnits="userSpaceOnUse">
<stop stop-color="#9CA4E7"/>
<stop offset="1" stop-color="#3D405F" stop-opacity="0.31"/>
</linearGradient>
<linearGradient id="paint11_linear_21_2" x1="125.5" y1="59" x2="125.5" y2="83" gradientUnits="userSpaceOnUse">
<stop stop-color="#9CA4E7"/>
<stop offset="1" stop-color="#3D405F" stop-opacity="0.31"/>
</linearGradient>
<linearGradient id="paint12_linear_21_2" x1="125.5" y1="59" x2="125.5" y2="83" gradientUnits="userSpaceOnUse">
<stop stop-color="#9CA4E7"/>
<stop offset="1" stop-color="#3D405F" stop-opacity="0.31"/>
</linearGradient>
<linearGradient id="paint13_linear_21_2" x1="125.5" y1="59" x2="125.5" y2="83" gradientUnits="userSpaceOnUse">
<stop stop-color="#9CA4E7"/>
<stop offset="1" stop-color="#3D405F" stop-opacity="0.31"/>
</linearGradient>
<linearGradient id="paint14_linear_21_2" x1="125.5" y1="59" x2="125.5" y2="83" gradientUnits="userSpaceOnUse">
<stop stop-color="#9CA4E7"/>
<stop offset="1" stop-color="#3D405F" stop-opacity="0.31"/>
</linearGradient>
<linearGradient id="paint15_linear_21_2" x1="125.5" y1="59" x2="125.5" y2="83" gradientUnits="userSpaceOnUse">
<stop stop-color="#9CA4E7"/>
<stop offset="1" stop-color="#3D405F" stop-opacity="0.31"/>
</linearGradient>
<linearGradient id="paint16_linear_21_2" x1="125.5" y1="59" x2="125.5" y2="83" gradientUnits="userSpaceOnUse">
<stop stop-color="#9CA4E7"/>
<stop offset="1" stop-color="#3D405F" stop-opacity="0.31"/>
</linearGradient>
<linearGradient id="paint17_linear_21_2" x1="125.5" y1="59" x2="125.5" y2="83" gradientUnits="userSpaceOnUse">
<stop stop-color="#9CA4E7"/>
<stop offset="1" stop-color="#3D405F" stop-opacity="0.31"/>
</linearGradient>
</defs>
</svg>
