<svg width="204" height="219" viewBox="0 0 204 219" fill="none" xmlns="http://www.w3.org/2000/svg">
<circle cx="12.0074" cy="169.36" r="2.12306" transform="rotate(21.5352 12.0074 169.36)" fill="#2CFFC0"/>
<circle cx="200.918" cy="134.9" r="2.12306" transform="rotate(21.5352 200.918 134.9)" fill="#2CFFC0"/>
<ellipse cx="3.82657" cy="159.141" rx="1.41432" ry="1.24942" transform="rotate(21.5352 3.82657 159.141)" fill="#E93C8F"/>
<ellipse cx="192.737" cy="124.681" rx="1.41432" ry="1.24942" transform="rotate(21.5352 192.737 124.681)" fill="#E93C8F"/>
<ellipse cx="2.68342" cy="173.666" rx="2.13925" ry="1.88981" transform="rotate(21.5352 2.68342 173.666)" fill="#FCFFE0"/>
<ellipse cx="191.594" cy="139.206" rx="2.13925" ry="1.88981" transform="rotate(21.5352 191.594 139.206)" fill="#FCFFE0"/>
<ellipse cx="195.594" cy="41.5431" rx="2.13925" ry="1.88981" transform="rotate(21.5352 195.594 41.5431)" fill="#FCFFE0"/>
<ellipse cx="14.6908" cy="158.265" rx="1.18385" ry="1.04582" transform="rotate(21.5352 14.6908 158.265)" fill="#3F6EFC"/>
<ellipse cx="196.395" cy="110.407" rx="1.18385" ry="1.04582" transform="rotate(21.5352 196.395 110.407)" fill="#3F6EFC"/>
<ellipse cx="8.04801" cy="17.6242" rx="1.18385" ry="1.04582" transform="rotate(21.5352 8.04801 17.6242)" fill="#3F6EFC"/>
<path d="M67.1278 208.843C72.036 215.2 84.853 217.646 90.9475 217.646C90.9475 217.394 90.6186 202.643 90.5137 195.299L89.5932 80.1823L86.4507 56.4818L61.3958 50.3873L33.6323 57.1589L13.3177 88.3083C13.3177 88.3083 8.57741 102.529 9.93169 118.78C11.286 135.032 18.7348 147.898 28.215 153.316C28.8922 170.922 32.8835 184.27 41.7457 192.88C50.6078 201.489 60.9924 200.895 67.1278 208.843Z" fill="#171823"/>
<path fill-rule="evenodd" clip-rule="evenodd" d="M73.2647 153.707C72.012 152.2 71.9869 151.064 71.9869 150.387C71.9869 149.401 73.3413 148.78 73.3413 149.71C73.3413 151.741 74.515 152.741 75.3728 153.773C76.1905 154.757 78.1076 155.127 80.1129 155.127C81.9596 155.127 83.4986 156.024 84.1759 157.836C84.7189 159.289 84.8041 159.611 85.5302 160.545C85.9894 161.135 88.2388 162.119 88.2388 162.119C88.9159 162.338 88.6485 162.446 90.2703 162.446V163.93C88.1677 163.93 85.9704 163.398 84.8458 162.446C83.7665 161.533 83.1976 160.345 82.7736 159.412C82.7354 159.328 82.6983 159.246 82.6623 159.166C82.2593 158.276 81.9861 157.673 81.5593 157.218C81.1922 156.827 80.6363 156.482 79.4357 156.482C76.5655 156.482 74.5575 155.263 73.2647 153.707Z" fill="#3F6EFC"/>
<path fill-rule="evenodd" clip-rule="evenodd" d="M80.0654 139.145C78.8191 141.638 78.7682 145.339 78.7585 146.544C78.7488 147.749 77.8775 147.121 77.8775 147.121C77.1597 144.49 77.788 139.773 78.6118 138.418C79.4356 137.064 81.3118 136.652 80.0654 139.145Z" fill="#3F6EFC"/>
<path fill-rule="evenodd" clip-rule="evenodd" d="M60.569 126.219C56.2161 126.209 51.5821 125.628 49.3806 125.447C47.1791 125.266 46.7757 124.064 49.639 124.147C52.5024 124.231 56.3759 124.451 60.5236 124.46C64.723 124.469 68.0728 123.859 71.4221 123.804C74.7714 123.749 72.7713 124.579 72.7713 124.579C69.5244 125.863 64.8701 126.228 60.569 126.219Z" fill="#3F6EFC"/>
<path d="M50.3177 105.914C44.7552 104.896 40.8223 107.018 38.6313 109.496C37.7937 110.443 38.9068 111.458 40.0974 111.032C52.7385 106.514 72.332 116.404 76.0498 112.686C78.6499 110.086 74.6381 106.371 67.2467 105.914C59.8554 105.458 60.28 107.739 50.3177 105.914Z" fill="#3F6EFC"/>
<path fill-rule="evenodd" clip-rule="evenodd" d="M46.1274 165.944C45.362 163.155 44.2924 160.402 43.5463 158.733C43.5463 158.733 44.5666 158.773 45.723 160.153C46.8795 161.532 47.2253 163.39 48.0404 166.36C48.4481 167.845 49.0715 168.105 49.2455 169.544C49.417 170.961 49.4438 172.399 49.1479 173.635C49.0113 174.205 49.1657 175.031 49.9467 176.386C50.5489 177.432 51.3718 178.544 52.3169 179.821C52.5697 180.163 52.8312 180.517 53.0997 180.884C55.5357 184.217 58.4438 188.542 58.4438 193.945C58.4438 193.945 57.0895 189.205 55.7351 187.174C54.3808 185.142 50.995 181.079 50.995 181.079C50.0366 179.785 48.7303 179.146 48.0404 177.949C47.1952 176.481 46.4823 174.721 46.924 172.877C47.0906 172.182 47.1077 171.189 46.9564 169.938C46.8077 168.709 46.5099 167.338 46.1274 165.944Z" fill="#3F6EFC"/>
<path fill-rule="evenodd" clip-rule="evenodd" d="M24.2729 122.688C24.2494 123.692 24.4335 125.287 25.3794 127.431C25.86 128.52 26.42 129.457 26.9858 130.403C28.6022 133.107 30.2666 135.891 30.2666 142.547V142.582L30.2648 142.617C28.9101 168.939 34.353 183.694 42.8083 191.908C46.9465 195.928 51.4275 197.853 55.8284 199.743C55.9233 199.784 56.0181 199.824 56.1129 199.865C60.5554 201.774 65.0086 203.727 68.3188 208.015C70.5134 210.858 74.5842 212.954 79.0521 214.334C83.4788 215.702 88.0422 216.291 90.9473 216.291V219C87.758 219 82.9253 218.366 78.2524 216.922C73.6206 215.491 68.8884 213.185 66.1747 209.67C63.3495 206.011 59.5428 204.287 55.0436 202.354C54.9156 202.299 54.7872 202.244 54.6584 202.188C50.3046 200.32 45.4225 198.224 40.9209 193.851C31.6561 184.85 26.1924 169.151 27.5579 142.513C27.5531 136.672 26.3256 134.624 24.8124 132.098C24.2014 131.078 23.5437 129.981 22.9012 128.524C21.8021 126.033 21.5317 124.044 21.565 122.624C21.5816 121.918 21.6733 121.361 21.7692 120.962C21.8171 120.763 21.866 120.605 21.9068 120.487C21.9272 120.428 21.9456 120.379 21.9608 120.341C21.9685 120.322 21.9753 120.305 21.9812 120.291L21.9894 120.272L21.9929 120.264L21.9945 120.26L21.9953 120.259C21.9957 120.258 21.996 120.257 23.2315 120.812C24.4669 121.367 24.4673 121.366 24.4676 121.365L24.4683 121.364L24.4696 121.361L24.4719 121.355L24.4753 121.347C24.4771 121.343 24.4778 121.342 24.4776 121.342C24.4772 121.343 24.4732 121.353 24.4665 121.373C24.4531 121.411 24.4292 121.486 24.4026 121.597C24.3494 121.817 24.2848 122.183 24.2729 122.688Z" fill="#9CA4E7"/>
<path d="M77.4041 117.062C77.4041 119.478 69.7235 120.812 62.8192 120.812C55.9148 120.812 50.3177 118.312 50.3177 117.062C50.3177 114.645 55.9148 112.686 62.8192 112.686C69.7235 112.686 77.4041 116.072 77.4041 117.062Z" fill="#FCFFE0"/>
<path d="M90.9473 174.203C90.9473 175.589 90.9473 181.235 90.9473 181.235C79.6961 181.704 63.288 171.703 63.288 170.453C63.288 169.203 67.1661 168.109 74.0704 168.109C80.9748 168.109 90.9473 173.214 90.9473 174.203Z" fill="#FCFFE0"/>
<path fill-rule="evenodd" clip-rule="evenodd" d="M59.8448 114.367C54.3071 115.118 48.9635 118.781 47.122 119.821C45.2804 120.861 45.3879 119.094 47.6092 117.426C49.8305 115.758 53.3711 112.511 59.4806 111.683C65.6411 110.847 76.0499 113.363 81.115 119.821C81.4672 120.812 80.1129 121.489 77.8916 119.821C71.7121 114.671 65.3315 113.622 59.8448 114.367Z" fill="#3F6EFC"/>
<path fill-rule="evenodd" clip-rule="evenodd" d="M9.08222 124.178C7.10854 112.928 8.44473 102.21 10.4301 96.0206L13.0093 96.8479C11.1574 102.621 9.85269 112.895 11.7501 123.71C13.6433 134.5 18.6998 145.712 29.4484 153.577L27.8489 155.763C16.3867 147.376 11.0601 135.451 9.08222 124.178Z" fill="#9CA4E7"/>
<path fill-rule="evenodd" clip-rule="evenodd" d="M57.1936 167.536L60.5794 168.213C66.5431 169.207 68.1067 167.522 69.7595 167.146C69.893 167.116 70.0285 167.084 70.1668 167.052C70.9425 166.87 71.8087 166.666 72.9368 166.577C74.2713 166.472 75.9418 166.524 78.3771 166.872C80.733 167.209 82.5136 168.159 84.0758 168.992C84.2719 169.097 84.4646 169.199 84.6545 169.299C86.3657 170.195 88.5666 172.797 90.9474 172.797V174.203C87.9109 174.203 85.2415 172.664 83.3976 171.698C83.1943 171.592 82.9957 171.486 82.8004 171.383C81.2167 170.543 79.8532 169.819 77.994 169.554C75.6891 169.225 74.2278 169.192 73.1499 169.278C72.241 169.349 71.5826 169.503 70.8155 169.682C70.6684 169.717 70.5173 169.752 70.3597 169.788C69.0793 170.079 66.1091 170.56 63.7568 170.453C63.7489 171.166 66.1627 172.612 67.9761 173.266C72.9368 174.672 73.667 176.614 73.667 176.937C72.0424 176.357 69.3884 175.288 66.654 173.949C63.9388 172.62 61.0496 170.98 59.0209 169.241L57.1936 167.536Z" fill="#3F6EFC"/>
<path fill-rule="evenodd" clip-rule="evenodd" d="M71.6854 141.69C71.5235 141.993 65.6813 146.52 61.1524 152.638C57.2516 157.909 53.9046 163.294 53.7036 165.504C53.7036 165.504 53.0293 167.475 53.0265 165.504C53.0237 163.534 57.7666 148.575 70.9342 140.563C72.6641 139.772 71.987 141.127 71.6854 141.69Z" fill="#3F6EFC"/>
<path fill-rule="evenodd" clip-rule="evenodd" d="M18.0402 112.557C16.6633 116.64 21.5592 127.397 24.5858 124.875C28.6488 121.489 32.4879 117.426 29.3259 107.269C27.768 102.264 29.2805 96.6463 30.6386 91.6021C31.681 87.7302 32.6325 84.1962 32.0346 81.5367C30.6577 75.4123 29.6761 44.0735 90.9475 57.0027V0.277588C77.8413 0.277588 68.2268 3.69113 63.3407 6.69553C59.5005 9.05677 56.0714 11.1653 49.7091 11.1653C32.811 11.1653 20.7012 14.0902 13.3268 32.7305C14.3764 32.0335 16.8095 30.9816 17.8142 30.7497C15.9505 32.3028 13.0741 36.167 11.7198 38.8756C10.8714 40.5724 10.4401 41.6163 9.7793 44.5089C4.96053 65.6038 5.14128 76.4915 6.33713 83.9768C8.50223 97.529 11.9906 99.6797 14.6224 101.302C17.0121 102.775 18.6955 103.813 18.0402 112.557Z" fill="#9CA4E7"/>
<path fill-rule="evenodd" clip-rule="evenodd" d="M17.9084 112.301C17 119 21.4848 127.523 24.5 125C26 123.5 18.625 125 19.5001 114.5C20.0463 107.946 19 103 17.0001 101C6.00006 88.5 8.96908 75.5 10.5405 62.5C11.6118 45 18.9596 43.0408 21 34C22 26 27.5 17 39.0404 16C63.9068 13.8453 59 2.5 91 0.5V0C77.9433 0 67.9055 3.4142 63.0379 6.41918C59.2122 8.78088 55.7961 10.8898 49.4577 10.8898C32.6234 10.8898 20.3467 14.356 13.0001 33C14.0457 32.3028 16.4991 31.2319 17.5001 31C15.6434 32.5534 12.9611 35.8964 11.6118 38.6055C10.7667 40.3026 10.3369 41.3467 9.67868 44.2399C4.87809 65.3389 4.34913 76.0132 5.54046 83.5C7.69739 97.0548 11.3783 99.3772 14.0001 101C16.3808 102.474 18.5612 103.556 17.9084 112.301Z" fill="#FCFFE0"/>
<path d="M127.73 208.843C122.821 215.2 110.004 217.646 103.91 217.646C103.91 217.394 104.239 202.643 104.344 195.299L105.264 80.1823L108.407 56.4818L133.462 50.3873L161.225 57.1589L181.54 88.3083C181.54 88.3083 186.28 102.529 184.926 118.78C183.571 135.032 176.123 147.898 166.642 153.316C165.965 170.922 161.974 184.27 153.112 192.88C144.25 201.489 133.865 200.895 127.73 208.843Z" fill="#171823"/>
<path fill-rule="evenodd" clip-rule="evenodd" d="M121.593 153.707C122.845 152.2 122.87 151.064 122.87 150.387C122.87 149.401 121.516 148.78 121.516 149.71C121.516 151.741 120.342 152.741 119.485 153.773C118.667 154.757 116.75 155.127 114.744 155.127C112.898 155.127 111.359 156.024 110.681 157.836C110.138 159.289 110.053 159.611 109.327 160.545C108.868 161.135 106.619 162.119 106.619 162.119C105.941 162.338 106.209 162.446 104.587 162.446V163.93C106.69 163.93 108.887 163.398 110.011 162.446C111.091 161.533 111.66 160.345 112.084 159.412C112.122 159.328 112.159 159.246 112.195 159.166C112.598 158.276 112.871 157.673 113.298 157.218C113.665 156.827 114.221 156.482 115.422 156.482C118.292 156.482 120.3 155.263 121.593 153.707Z" fill="#3F6EFC"/>
<path fill-rule="evenodd" clip-rule="evenodd" d="M114.792 139.145C116.038 141.638 116.089 145.339 116.099 146.544C116.109 147.749 116.98 147.121 116.98 147.121C117.698 144.49 117.069 139.773 116.246 138.418C115.422 137.064 113.546 136.652 114.792 139.145Z" fill="#3F6EFC"/>
<path fill-rule="evenodd" clip-rule="evenodd" d="M134.288 126.219C138.641 126.209 143.275 125.628 145.477 125.447C147.678 125.266 148.082 124.064 145.218 124.147C142.355 124.231 138.481 124.451 134.334 124.46C130.134 124.469 126.785 123.859 123.435 123.804C120.086 123.749 122.086 124.579 122.086 124.579C125.333 125.863 129.987 126.228 134.288 126.219Z" fill="#3F6EFC"/>
<path d="M144.54 105.914C150.102 104.896 154.035 107.018 156.226 109.496C157.064 110.443 155.95 111.458 154.76 111.032C142.119 106.514 122.525 116.404 118.808 112.686C116.207 110.086 120.219 106.371 127.611 105.914C135.002 105.458 134.577 107.739 144.54 105.914Z" fill="#3F6EFC"/>
<path fill-rule="evenodd" clip-rule="evenodd" d="M148.73 165.944C149.495 163.155 150.565 160.402 151.311 158.733C151.311 158.733 150.291 158.773 149.134 160.153C147.978 161.532 147.632 163.39 146.817 166.36C146.409 167.845 145.786 168.105 145.612 169.544C145.44 170.961 145.414 172.399 145.71 173.635C145.846 174.205 145.692 175.031 144.911 176.386C144.308 177.432 143.486 178.544 142.541 179.821C142.288 180.163 142.026 180.517 141.758 180.884C139.322 184.217 136.414 188.542 136.414 193.945C136.414 193.945 137.768 189.205 139.122 187.174C140.477 185.142 143.862 181.079 143.862 181.079C144.821 179.785 146.127 179.146 146.817 177.949C147.662 176.481 148.375 174.721 147.933 172.877C147.767 172.182 147.75 171.189 147.901 169.938C148.05 168.709 148.348 167.338 148.73 165.944Z" fill="#3F6EFC"/>
<path fill-rule="evenodd" clip-rule="evenodd" d="M170.584 122.688C170.608 123.692 170.424 125.287 169.478 127.431C168.997 128.52 168.437 129.457 167.872 130.403C166.255 133.107 164.591 135.891 164.591 142.547V142.582L164.593 142.617C165.947 168.939 160.504 183.694 152.049 191.908C147.911 195.928 143.43 197.853 139.029 199.743C138.934 199.784 138.839 199.824 138.744 199.865C134.302 201.774 129.849 203.727 126.539 208.015C124.344 210.858 120.273 212.954 115.805 214.334C111.379 215.702 106.815 216.291 103.91 216.291V219C107.099 219 111.932 218.366 116.605 216.922C121.237 215.491 125.969 213.185 128.683 209.67C131.508 206.011 135.315 204.287 139.814 202.354C139.942 202.299 140.07 202.244 140.199 202.188C144.553 200.32 149.435 198.224 153.936 193.851C163.201 184.85 168.665 169.151 167.299 142.513C167.304 136.672 168.532 134.624 170.045 132.098C170.656 131.078 171.314 129.981 171.956 128.524C173.055 126.033 173.326 124.044 173.292 122.624C173.276 121.918 173.184 121.361 173.088 120.962C173.04 120.763 172.991 120.605 172.951 120.487C172.93 120.428 172.912 120.379 172.897 120.341C172.889 120.322 172.882 120.305 172.876 120.291L172.868 120.272L172.865 120.264L172.863 120.26L172.862 120.259C172.862 120.258 172.861 120.257 171.626 120.812C170.391 121.367 170.39 121.366 170.39 121.365L170.389 121.364L170.388 121.361L170.385 121.355L170.382 121.347C170.38 121.343 170.38 121.342 170.38 121.342C170.38 121.343 170.384 121.353 170.391 121.373C170.404 121.411 170.428 121.486 170.455 121.597C170.508 121.817 170.573 122.183 170.584 122.688Z" fill="#9CA4E7"/>
<path d="M117.453 117.062C117.453 119.478 125.134 120.812 132.038 120.812C138.942 120.812 144.54 118.312 144.54 117.062C144.54 114.645 138.942 112.686 132.038 112.686C125.134 112.686 117.453 116.072 117.453 117.062Z" fill="#FCFFE0"/>
<path d="M103.91 174.203C103.91 175.589 103.91 181.235 103.91 181.235C115.161 181.704 131.569 171.703 131.569 170.453C131.569 169.203 127.691 168.109 120.787 168.109C113.883 168.109 103.91 173.214 103.91 174.203Z" fill="#FCFFE0"/>
<path fill-rule="evenodd" clip-rule="evenodd" d="M135.013 114.367C140.55 115.118 145.894 118.781 147.735 119.821C149.577 120.861 149.469 119.094 147.248 117.426C145.027 115.758 141.486 112.511 135.377 111.683C129.216 110.847 118.807 113.363 113.742 119.821C113.39 120.812 114.745 121.489 116.966 119.821C123.145 114.671 129.526 113.622 135.013 114.367Z" fill="#3F6EFC"/>
<path fill-rule="evenodd" clip-rule="evenodd" d="M185.775 124.178C187.749 112.928 186.413 102.21 184.427 96.0206L181.848 96.8479C183.7 102.621 185.005 112.895 183.107 123.71C181.214 134.5 176.158 145.712 165.409 153.577L167.008 155.763C178.471 147.376 183.797 135.451 185.775 124.178Z" fill="#9CA4E7"/>
<path fill-rule="evenodd" clip-rule="evenodd" d="M137.664 167.536L134.278 168.213C128.314 169.207 126.751 167.522 125.098 167.146C124.964 167.116 124.829 167.084 124.691 167.052C123.915 166.87 123.049 166.666 121.921 166.577C120.586 166.472 118.916 166.524 116.48 166.872C114.124 167.209 112.344 168.159 110.782 168.992C110.586 169.097 110.393 169.199 110.203 169.299C108.492 170.195 106.291 172.797 103.91 172.797V174.203C106.947 174.203 109.616 172.664 111.46 171.698C111.663 171.592 111.862 171.486 112.057 171.383C113.641 170.543 115.004 169.819 116.863 169.554C119.168 169.225 120.63 169.192 121.707 169.278C122.616 169.349 123.275 169.503 124.042 169.682C124.189 169.717 124.34 169.752 124.498 169.788C125.778 170.079 128.748 170.56 131.101 170.453C131.108 171.166 128.695 172.612 126.881 173.266C121.921 174.672 121.19 176.614 121.19 176.937C122.815 176.357 125.469 175.288 128.203 173.949C130.919 172.62 133.808 170.98 135.837 169.241L137.664 167.536Z" fill="#3F6EFC"/>
<path fill-rule="evenodd" clip-rule="evenodd" d="M123.172 141.69C123.334 141.993 129.176 146.52 133.705 152.638C137.606 157.909 140.953 163.294 141.154 165.504C141.154 165.504 141.828 167.475 141.831 165.504C141.834 163.534 137.091 148.575 123.923 140.563C122.193 139.772 122.87 141.127 123.172 141.69Z" fill="#3F6EFC"/>
<path fill-rule="evenodd" clip-rule="evenodd" d="M176.817 112.557C178.194 116.64 173.298 127.397 170.272 124.875C166.209 121.489 162.37 117.426 165.531 107.269C167.089 102.264 165.577 96.6463 164.219 91.6021C163.176 87.7302 162.225 84.1962 162.823 81.5367C164.2 75.4123 165.181 44.0735 103.91 57.0027V0.277588C117.016 0.277588 126.631 3.69113 131.517 6.69553C135.357 9.05677 138.786 11.1653 145.148 11.1653C162.046 11.1653 174.156 14.0902 181.531 32.7305C180.481 32.0335 178.048 30.9816 177.043 30.7497C178.907 32.3028 181.783 36.167 183.138 38.8756C183.986 40.5724 184.417 41.6163 185.078 44.5089C189.897 65.6038 189.716 76.4915 188.52 83.9768C186.355 97.529 182.867 99.6797 180.235 101.302C177.845 102.775 176.162 103.813 176.817 112.557Z" fill="#9CA4E7"/>
<path d="M145.122 42.0795C153.313 40.8053 171.378 41.3407 175.598 64.5687C172.829 57.406 163.592 44.6287 145.122 42.0795Z" fill="#171823"/>
<path d="M132.009 18.895C140.2 17.6207 158.265 18.1562 162.485 41.3842C159.716 34.2215 150.479 21.4441 132.009 18.895Z" fill="#171823"/>
<path d="M114.988 82.9628C114.988 80.7051 112.161 78.5652 107.826 77.239C108.827 72.8216 108.383 69.3059 106.423 68.1799C105.948 67.914 105.411 67.7801 104.867 67.7923V69.34C105.187 69.34 105.444 69.4039 105.659 69.5217C106.604 70.0641 107.014 72.1259 106.694 74.7797C106.618 75.4329 106.493 76.1201 106.34 76.8216C104.888 76.4718 103.414 76.2189 101.929 76.0647C101.044 74.844 100.079 73.6837 99.0397 72.5916C101.304 70.4873 103.43 69.3343 104.876 69.3343V67.7852C102.964 67.7852 100.464 69.1469 97.935 71.5082C95.4075 69.1625 92.9056 67.8136 90.9958 67.8136V69.3613C92.4342 69.3613 94.5669 70.5086 96.8317 72.5987C95.859 73.6211 94.8864 74.7797 93.962 76.0647C92.4737 76.2172 90.9977 76.4725 89.5446 76.8287C89.3842 76.1343 89.2663 75.4613 89.1825 74.8152C88.8559 72.16 89.2592 70.0982 90.1978 69.5501C90.4051 69.4252 90.6763 69.3684 90.9958 69.3684V67.8207C90.4136 67.8207 89.884 67.9456 89.4268 68.2083C87.4744 69.3343 87.037 72.8415 88.0437 77.2461C83.7229 78.5809 80.91 80.7122 80.91 82.9628C80.91 85.2204 83.7371 87.3603 88.0721 88.6851C87.0711 93.1039 87.5155 96.6196 89.475 97.7442C89.9266 98.0083 90.4548 98.1332 91.037 98.1332C92.9482 98.1332 95.4487 96.7715 97.9776 94.4102C100.505 96.7573 103.006 98.1049 104.917 98.1049C105.465 98.1164 106.006 97.9822 106.486 97.7158C108.438 96.5912 108.875 93.084 107.869 88.6794C112.175 87.3532 114.988 85.2133 114.988 82.9628ZM105.943 78.3295C105.674 79.258 105.361 80.1734 105.006 81.0728C104.426 79.9436 103.788 78.8446 103.096 77.78C104.083 77.9263 105.035 78.1066 105.945 78.3295H105.943ZM102.763 85.7274C102.222 86.6645 101.665 87.5548 101.089 88.3812C99.0045 88.5649 96.9084 88.5673 94.8239 88.3883C93.6282 86.6804 92.5826 84.8722 91.6986 82.9841C92.5812 81.0914 93.6224 79.2769 94.8111 77.5599C96.8947 77.3759 98.9903 77.373 101.074 77.5514C101.651 78.3778 102.215 79.261 102.756 80.1925C103.284 81.1012 103.764 82.0242 104.201 82.9557C103.759 83.8984 103.279 84.8231 102.763 85.7274V85.7274ZM105.006 84.8243C105.381 85.7543 105.702 86.6858 105.965 87.5889C105.056 87.8118 104.096 87.9992 103.103 88.1441C103.792 87.0698 104.428 85.9618 105.006 84.8243V84.8243ZM97.9634 92.2363C97.3173 91.5689 96.6712 90.8263 96.0323 90.0127C96.657 90.0411 97.296 90.0624 97.9421 90.0624C98.5952 90.0624 99.2413 90.0482 99.8732 90.0127C99.2484 90.8263 98.6023 91.5689 97.9634 92.2363ZM92.7948 88.1441C91.8374 88.0053 90.887 87.8225 89.9464 87.596C90.2035 86.7 90.5229 85.7756 90.8836 84.8527C91.169 85.4064 91.4686 85.9631 91.7952 86.5197C92.1218 87.0749 92.454 87.6173 92.7948 88.1441ZM97.9279 73.6892C98.5739 74.3566 99.22 75.0992 99.859 75.9128C99.2342 75.8844 98.5952 75.8631 97.9492 75.8631C97.296 75.8631 96.6499 75.8773 96.0181 75.9128C96.6428 75.0992 97.2889 74.3566 97.9279 73.6892ZM92.7877 77.7814C92.0989 78.8534 91.4638 79.959 90.885 81.0941C90.5204 80.1889 90.2005 79.2662 89.9266 78.3295C90.8353 78.1137 91.7952 77.9263 92.7877 77.7814ZM86.5017 86.4771C84.0424 85.4292 82.4521 84.0533 82.4521 82.9628C82.4521 81.8722 84.0424 80.4892 86.5017 79.4484C87.0981 79.1914 87.7512 78.9614 88.4257 78.747C88.8219 80.1073 89.343 81.5244 89.9876 82.977C89.379 84.3432 88.8643 85.7493 88.447 87.1856C87.7874 86.9814 87.1382 86.7449 86.5017 86.4771V86.4771ZM90.239 96.4024C89.2947 95.8628 88.8843 93.7982 89.2038 91.1458C89.2805 90.4926 89.4055 89.804 89.5588 89.1025C90.9191 89.4362 92.4058 89.6932 93.9691 89.8608C94.854 91.0815 95.8193 92.2417 96.8587 93.3339C94.5939 95.4382 92.4682 96.5912 91.0228 96.5912C90.75 96.5942 90.4808 96.5298 90.239 96.4038V96.4024ZM106.716 91.1103C107.042 93.7641 106.639 95.8273 105.701 96.3754C105.493 96.5003 105.222 96.5557 104.903 96.5557C103.464 96.5557 101.331 95.4098 99.0666 93.3183C100.039 92.2988 101.012 91.1387 101.936 89.8537C103.425 89.7012 104.901 89.446 106.354 89.0897C106.514 89.7912 106.638 90.4642 106.716 91.1103V91.1103ZM109.39 86.4771C108.793 86.7341 108.14 86.9641 107.466 87.1785C107.041 85.7349 106.519 84.3217 105.904 82.9486C106.543 81.5045 107.055 80.0945 107.444 78.7399C108.133 78.9543 108.785 79.1914 109.397 79.4484C111.856 80.4963 113.446 81.8722 113.446 82.9628C113.439 84.0533 111.849 85.4363 109.39 86.4771V86.4771Z" fill="#2CFFC0"/>
<path d="M97.9422 86.1378C98.7842 86.1378 99.5918 85.8033 100.187 85.2078C100.783 84.6124 101.117 83.8048 101.117 82.9628C101.117 82.1207 100.783 81.3132 100.187 80.7178C99.5918 80.1223 98.7842 79.7878 97.9422 79.7878C97.1001 79.7878 96.2926 80.1223 95.6971 80.7178C95.1017 81.3132 94.7672 82.1207 94.7672 82.9628C94.7672 83.8048 95.1017 84.6124 95.6971 85.2078C96.2926 85.8033 97.1001 86.1378 97.9422 86.1378V86.1378Z" fill="#2CFFC0"/>
<path d="M20.771 67.7852C19.9926 59.5319 21.6156 41.5322 45.0557 38.7194C37.7391 41.0519 24.4284 49.5019 20.771 67.7852Z" fill="#171823"/>
<path d="M27.0884 81C26.6104 73.3333 27.607 56.6129 42 54C37.5074 56.1667 29.3342 64.0161 27.0884 81Z" fill="#171823"/>
<path d="M33.1014 35.3701C33.5986 30.3276 37.0218 19.8267 53.8868 21.6514C48.4384 21.9499 37.9933 25.004 33.1014 35.3701Z" fill="#171823"/>
<path d="M62.0178 51.1831C66.9713 47.8791 78.5974 42.0994 86.1611 51.1554C82.8933 48.852 74.325 46.1753 62.0178 51.1831Z" fill="#171823"/>
<path d="M132.143 51.1831C127.19 47.8791 115.564 42.0994 108 51.1554C111.268 48.852 119.836 46.1753 132.143 51.1831Z" fill="#171823"/>
<path d="M50.0356 48.5204C54.9891 45.2164 66.6152 39.4367 74.179 48.4926C70.9111 46.1893 62.3429 43.5126 50.0356 48.5204Z" fill="#171823"/>
<path d="M144.125 48.5204C139.172 45.2164 127.546 39.4367 119.982 48.4926C123.25 46.1893 131.818 43.5126 144.125 48.5204Z" fill="#171823"/>
</svg>
